<?xml version="1.0" encoding="utf-8"?>
<!-- Generator: Adobe Illustrator 18.1.1, SVG Export Plug-In . SVG Version: 6.00 Build 0)  -->
<svg version="1.1" id="Layer_1" xmlns="http://www.w3.org/2000/svg" xmlns:xlink="http://www.w3.org/1999/xlink" x="0px" y="0px"
	 width="68.6px" height="69.2px" viewBox="-445 246.8 68.6 69.2" style="enable-background:new -445 246.8 68.6 69.2;"
	 xml:space="preserve">
<style type="text/css">
	.st0{fill:#512200;stroke:#512200;stroke-miterlimit:10;}
</style>
<g>
	<path class="st0" d="M-389.1,277.2c0.7,2.6,1.1,5.5,1.1,8.4c0,0.3,0,0.7,0,1l3.4,1.3l2.8-2.4l2.2,2.6l-4.3,3.5l-4.4-1.8
		c-0.5,3.9-1.7,7.6-3.4,10.7l0.6-0.8l3.3,1.9l3.2-1.9l1.8,2.9l-4.7,2.9l-5.2-3.1c-4.1,6.4-10.5,10.5-17.6,10.5
		c-7.1,0-13.4-4.1-17.5-10.4l-5.1,3l-4.7-2.9l1.7-2.8l3.2,1.9l3.3-1.9l0.2,0.3c-1.6-3-2.7-6.5-3.1-10.2l-4.3,1.7l-4.3-3.5l2.2-2.6
		l2.8,2.4l3.3-1.3c0-0.4,0-0.7,0-1.1c0-2.9,0.4-5.7,1.1-8.4l-5.6-0.2l-2.4-4.9l3-1.5l1.6,3.3l3.8,0.2l0.1,1.1
		c2.3-6.8,6.8-12.3,12.4-15c0.1-2.1,1.8-3.8,4-3.8h9.3c2.2,0,4,1.8,4,4c0,0.1,0,0.2,0,0.3c5.3,2.9,9.5,8.3,11.6,14.9l0.1-1.5
		l3.8-0.2l1.6-3.3l3,1.5l-2.4,4.9L-389.1,277.2z"/>
	<polygon class="st0" points="-399,252.9 -399.4,254.1 -400.1,254.4 -401.5,254.8 -402.7,255.5 -404.4,256.4 -404.4,255.5 
		-402.5,254.2 -401.1,253.8 -399.9,252.9 -399.2,251.5 -397.9,251.1 -398.3,252.4 	"/>
	<polygon class="st0" points="-418.1,254.8 -419.5,254.4 -420.2,254.1 -420.6,252.9 -421.4,252.4 -421.8,251.1 -420.4,251.5 
		-419.7,252.9 -418.5,253.8 -417.1,254.2 -415.2,255.5 -415.2,256.4 -416.9,255.5 	"/>
</g>
</svg>
